<svg xmlns="http://www.w3.org/2000/svg" viewBox="0 0 100 100">
  <defs>
    <linearGradient id="bg-grad" x1="0%" y1="0%" x2="100%" y2="100%">
      <stop offset="0%" style="stop-color:#00a2ff;stop-opacity:1" />
      <stop offset="100%" style="stop-color:#38b000;stop-opacity:1" />
    </linearGradient>
    <linearGradient id="arrow-grad" x1="0%" y1="0%" x2="100%" y2="100%">
      <stop offset="0%" style="stop-color:#ff9100;stop-opacity:1" />
      <stop offset="100%" style="stop-color:#ffc300;stop-opacity:1" />
    </linearGradient>
  </defs>
  <!-- Background -->
  <rect x="0" y="0" width="100" height="100" rx="20" fill="url(#bg-grad)" />
  
  <!-- Clock Face -->
  <circle cx="50" cy="55" r="35" fill="none" stroke="white" stroke-width="4" />
  <g stroke="white" stroke-width="2">
    <line x1="50" y1="20" x2="50" y2="25" />
    <line x1="50" y1="85" x2="50" y2="90" />
    <line x1="15" y1="55" x2="20" y2="55" />
    <line x1="80" y1="55" x2="85" y2="55" />
  </g>
  
  <!-- Clock Hands -->
  <line x1="50" y1="55" x2="50" y2="35" stroke="white" stroke-width="3" stroke-linecap="round" />
  <line x1="50" y1="55" x2="65" y2="55" stroke="white" stroke-width="3" stroke-linecap="round" />
  
  <!-- Orange Arrow -->
  <path d="M40 70 L70 40 L65 40 M70 40 L70 45" stroke="url(#arrow-grad)" stroke-width="8" stroke-linecap="round" fill="none" />
  
  <!-- Plus Sign -->
  <g transform="translate(80, 40)">
    <line x1="-8" y1="0" x2="8" y2="0" stroke="#ffeb3b" stroke-width="5" stroke-linecap="round" />
    <line x1="0" y1="-8" x2="0" y2="8" stroke="#ffeb3b" stroke-width="5" stroke-linecap="round" />
  </g>
</svg>
